<?xml version="1.0" standalone="no"?>
<!DOCTYPE svg PUBLIC "-//W3C//DTD SVG 20010904//EN"
 "http://www.w3.org/TR/2001/REC-SVG-20010904/DTD/svg10.dtd">
<svg version="1.0" xmlns="http://www.w3.org/2000/svg"
 width="900.000000pt" height="580.000000pt" viewBox="0 0 900.000000 580.000000"
 preserveAspectRatio="xMidYMid meet">

<g transform="translate(0.000000,580.000000) scale(0.100000,-0.100000)"
fill="#000000" stroke="none">
<path d="M1190 5785 c-468 -69 -830 -243 -1016 -488 -57 -75 -125 -217 -150
-312 -26 -98 -27 -403 -1 -522 44 -206 114 -398 227 -623 126 -253 332 -570
444 -685 164 -168 163 -372 -1 -830 -74 -204 -133 -426 -159 -595 -28 -177
-26 -489 4 -638 60 -298 188 -547 387 -748 215 -218 398 -306 635 -306 130 0
240 18 815 132 677 134 1102 200 1540 242 188 17 852 18 995 0 195 -24 344
-54 575 -117 618 -168 1095 -250 1675 -286 240 -15 868 -6 1085 15 274 28 478
56 529 74 100 35 176 131 211 267 20 78 20 283 0 398 -24 136 -48 203 -172
477 -373 825 -458 1103 -399 1305 27 90 73 198 199 461 63 132 134 284 157
339 136 317 202 587 203 820 0 204 -47 330 -167 450 -113 113 -269 182 -501
221 -126 21 -436 30 -517 15 -100 -20 -283 -82 -733 -251 -854 -320 -1288
-444 -1799 -512 -214 -29 -600 -31 -716 -5 -355 81 -639 259 -1185 743 -381
338 -566 487 -765 616 -291 189 -565 299 -855 343 -121 18 -422 18 -545 0z
m93 -965 c37 -39 48 -70 25 -70 -7 0 -23 16 -35 35 -43 66 -103 59 -182 -22
l-53 -55 -46 46 c-83 83 -185 84 -261 2 -29 -31 -41 -33 -41 -7 0 39 109 103
176 103 45 0 116 -33 144 -66 18 -23 34 -20 71 16 44 41 107 69 139 63 14 -3
42 -23 63 -45z m6357 -985 c30 -16 80 -74 80 -93 0 -24 -29 -11 -48 23 -40 66
-101 59 -181 -21 l-54 -54 -52 49 c-41 39 -62 51 -97 56 -54 8 -108 -12 -156
-57 -26 -26 -34 -30 -45 -19 -10 10 -5 19 26 46 83 72 164 86 240 41 24 -13
49 -32 57 -40 18 -22 28 -20 68 15 32 29 105 68 125 69 4 0 21 -7 37 -15z
m-5161 -10 c124 -30 243 -114 311 -222 l31 -48 82 0 c103 0 174 -31 241 -106
144 -160 98 -394 -99 -497 -43 -23 -62 -27 -135 -27 -69 0 -93 4 -127 23 -23
12 -49 22 -58 22 -9 0 -42 -18 -73 -40 -76 -54 -160 -82 -258 -88 -125 -7
-257 40 -356 127 -25 23 -49 41 -52 41 -4 0 -30 -16 -59 -34 -171 -113 -390
-44 -479 150 -34 74 -32 181 5 255 75 154 244 231 396 180 35 -12 64 -21 65
-19 1 2 17 27 35 55 43 69 137 154 207 189 109 53 210 65 323 39z m4650 -1560
c35 -9 90 -29 122 -47 66 -34 165 -127 193 -180 l19 -36 96 2 c86 1 102 -2
152 -27 66 -32 132 -99 162 -165 31 -67 30 -179 -1 -247 -29 -63 -92 -129
-157 -163 -42 -22 -63 -26 -131 -27 -69 0 -90 4 -141 29 l-60 28 -51 -40
c-202 -159 -476 -145 -660 34 l-57 56 -30 -18 c-93 -54 -109 -59 -195 -59 -78
0 -90 3 -148 34 -74 40 -115 84 -151 161 -37 77 -37 182 0 260 72 154 246 234
394 181 33 -12 67 -24 76 -27 10 -4 24 8 41 33 43 65 130 142 196 175 115 57
216 70 331 43z m-4776 -75 c37 -39 48 -70 25 -70 -7 0 -23 16 -35 35 -43 66
-103 59 -181 -21 l-54 -55 -45 45 c-42 43 -91 66 -138 66 -31 -1 -97 -34 -124
-64 -29 -31 -41 -33 -41 -6 0 27 84 87 138 99 56 12 99 0 157 -44 25 -19 48
-35 51 -35 4 0 22 14 42 31 48 42 111 70 142 64 14 -3 42 -23 63 -45z m744
-200 c36 -21 95 -98 90 -114 -7 -22 -27 -10 -56 35 -37 59 -79 76 -143 59 -33
-9 -60 -30 -116 -86 l-73 -75 -45 50 c-25 28 -69 62 -100 77 -46 23 -64 26
-113 21 -69 -6 -108 -24 -168 -79 -33 -31 -47 -38 -55 -30 -17 17 62 88 131
121 106 48 209 28 296 -58 22 -22 45 -40 51 -41 5 0 33 22 61 49 92 89 172
113 240 71z m-1491 -575 c68 -20 138 -68 176 -122 28 -38 36 -44 58 -39 106
25 174 9 239 -55 107 -107 87 -273 -42 -353 -82 -50 -176 -45 -258 15 -12 9
-25 5 -65 -24 -138 -99 -306 -85 -425 34 -63 63 -94 138 -94 229 0 90 23 146
85 214 94 102 206 137 326 101z"/>
</g>
</svg>
