<?xml version="1.0" standalone="no"?>
<!DOCTYPE svg PUBLIC "-//W3C//DTD SVG 20010904//EN"
 "http://www.w3.org/TR/2001/REC-SVG-20010904/DTD/svg10.dtd">
<svg version="1.0" xmlns="http://www.w3.org/2000/svg"
 width="2617.000000pt" height="1803.000000pt" viewBox="0 0 2617.000000 1803.000000"
 preserveAspectRatio="xMidYMid meet">

<g transform="translate(0.000000,1803.000000) scale(0.100000,-0.100000)"
fill="#000000" stroke="none">
<path d="M16942 16250 c-4 -3 -34 -45 -66 -95 -132 -201 -299 -402 -383 -461
-21 -14 -23 -14 -23 3 0 65 74 305 136 441 19 41 34 78 34 82 0 4 -37 1 -82
-6 -46 -7 -97 -14 -114 -16 l-31 -2 -12 -132 c-21 -240 -76 -484 -138 -610
l-27 -55 -29 51 c-38 65 -126 270 -183 423 -47 125 -99 210 -124 202 -8 -2
-52 -14 -97 -27 -46 -13 -83 -28 -83 -33 0 -6 39 -69 86 -140 107 -163 287
-525 269 -543 -6 -7 -126 120 -207 219 -69 85 -274 366 -296 406 -8 14 -31 9
-186 -43 -96 -32 -176 -63 -176 -69 0 -5 24 -27 54 -47 289 -201 660 -751 826
-1224 79 -224 136 -544 96 -544 -33 0 -200 290 -846 1470 -95 173 -176 319
-180 323 -6 7 -205 -64 -477 -171 -56 -22 -104 -37 -107 -34 -14 13 -4 -40 15
-85 102 -238 229 -706 306 -1135 l37 -206 61 -45 c195 -145 503 -487 781 -867
155 -212 359 -521 397 -602 134 -285 274 -750 265 -880 -2 -32 -7 -60 -11 -64
-27 -27 -142 71 -246 210 -201 267 -684 1067 -1117 1848 -54 98 -84 132 -84
94 0 -8 9 -91 20 -184 11 -93 31 -294 45 -447 24 -261 27 -279 47 -294 128
-89 423 -371 590 -563 340 -391 502 -655 686 -1118 70 -178 137 -369 131 -374
-2 -2 -31 -17 -64 -34 -33 -17 -78 -42 -101 -56 l-41 -25 -55 77 c-31 42 -124
180 -208 306 l-153 230 12 49 c6 26 11 55 11 63 0 18 -27 18 -60 0 -24 -14
-25 -12 -107 117 l-82 132 39 72 c22 40 40 79 40 88 0 19 -30 19 -78 -1 -88
-38 -71 -49 -177 120 -52 85 -95 160 -95 167 0 8 9 25 20 39 40 51 18 75 -40
45 -34 -18 -15 -42 -161 198 -46 75 -90 137 -97 137 -12 0 -13 -17 -8 -92 3
-51 9 -161 12 -244 l6 -150 -27 -18 c-50 -33 -184 -168 -234 -235 -68 -91
-124 -201 -155 -299 -28 -89 -33 -132 -15 -132 44 0 264 197 396 354 l41 49
78 -56 c44 -31 87 -63 98 -71 17 -14 15 -19 -48 -81 l-65 -65 -16 30 c-28 54
-45 39 -45 -40 0 -63 -3 -74 -34 -117 -52 -73 -123 -211 -157 -304 -40 -109
-53 -225 -39 -348 12 -110 33 -154 74 -159 39 -5 68 18 115 90 l41 63 0 -47
c0 -36 5 -50 21 -62 l22 -15 -41 -108 c-22 -59 -45 -135 -51 -167 -17 -91 -14
-321 5 -391 28 -107 13 -209 -62 -420 -35 -99 -67 -187 -70 -195 -4 -8 -35
125 -71 295 l-64 310 16 82 c9 46 38 166 66 268 52 196 57 225 36 225 -7 0
-41 -79 -82 -190 -49 -134 -72 -186 -77 -173 -20 50 -148 715 -148 768 0 33 7
110 15 170 18 135 18 155 3 155 -8 0 -22 -40 -37 -103 -13 -56 -28 -108 -33
-115 -10 -12 -5 -95 7 -139 3 -10 -7 6 -22 35 -27 52 -53 68 -53 34 0 -10 17
-62 39 -114 21 -52 44 -113 51 -134 7 -22 16 -41 20 -44 7 -5 132 -682 126
-687 -1 -1 -40 63 -85 142 -76 131 -111 172 -111 130 0 -9 38 -88 84 -178 145
-278 151 -296 201 -575 25 -136 48 -260 51 -277 3 -16 -40 49 -95 145 -91 158
-131 209 -131 166 0 -9 56 -127 124 -263 67 -137 130 -268 139 -293 20 -55 89
-443 85 -475 -2 -18 -33 25 -127 171 -112 176 -151 222 -151 179 0 -8 47 -97
104 -197 174 -306 163 -282 155 -368 -4 -41 -8 -96 -8 -122 l-1 -47 55 -17
c44 -14 55 -22 59 -43 13 -66 18 -101 14 -101 -3 0 -29 34 -59 75 -29 41 -59
75 -66 75 -8 0 -13 -13 -14 -32 -1 -18 -4 -44 -8 -58 -7 -24 -7 -24 -30 13
-23 38 -51 49 -51 21 0 -9 16 -45 36 -80 l36 -65 -12 -122 c-7 -67 -16 -128
-20 -135 -4 -9 -15 9 -29 46 -54 149 -235 481 -322 593 -226 287 -628 617
-939 771 -135 67 -170 78 -170 54 0 -18 298 -400 637 -817 405 -499 647 -768
746 -830 29 -18 53 -33 54 -33 0 -1 -6 -60 -15 -133 l-17 -132 -69 127 c-131
241 -205 352 -301 451 -199 207 -518 427 -847 585 -218 105 -255 116 -232 67
22 -47 1036 -1188 1275 -1436 l126 -130 -11 -77 c-6 -42 -14 -79 -17 -82 -3
-3 -56 55 -118 129 -62 75 -147 165 -189 201 -260 222 -733 460 -1072 539 -82
19 -90 19 -90 -1 0 -22 570 -589 763 -759 189 -167 302 -254 500 -387 143 -96
148 -100 143 -129 -3 -16 -9 -42 -12 -58 l-5 -29 -80 57 c-296 212 -706 414
-1008 497 -140 38 -151 40 -151 20 0 -49 844 -869 1097 -1066 l32 -25 -17 -63
c-16 -63 -17 -64 -47 -57 -16 3 -119 8 -227 12 -269 8 -420 -13 -615 -83 -86
-31 -97 -55 -35 -75 132 -43 724 -291 729 -306 6 -16 -129 -173 -200 -235
-248 -213 -563 -334 -998 -383 -156 -17 -517 -20 -694 -5 -163 14 -443 55
-584 86 -89 19 -200 30 -472 49 -197 13 -386 31 -422 39 -157 37 -304 133
-402 266 -117 158 -229 482 -265 765 -6 49 -13 91 -15 93 -5 6 -173 -48 -475
-153 -448 -156 -660 -238 -1090 -420 -675 -286 -937 -373 -1138 -377 -197 -4
-195 76 7 284 177 184 174 182 383 243 122 35 184 57 186 67 2 10 -19 25 -61
44 l-64 29 96 71 c328 241 720 480 877 535 168 58 393 84 658 76 205 -7 324
-21 508 -64 65 -14 120 -24 122 -22 3 2 19 144 36 314 17 171 44 436 60 589
35 323 35 326 16 326 -8 0 -83 -58 -168 -128 -581 -485 -968 -766 -1416 -1029
-158 -92 -634 -354 -800 -440 -155 -80 -188 -70 -133 42 124 252 886 1108
1199 1348 292 224 828 506 1257 662 55 20 109 40 120 44 19 8 24 33 53 262 18
140 32 262 32 272 0 31 -29 18 -127 -61 -283 -227 -578 -436 -838 -594 -209
-126 -833 -465 -924 -501 -53 -22 -85 -15 -75 16 31 104 233 374 514 686 174
195 474 492 570 565 213 163 523 335 855 476 55 23 104 45 108 49 4 4 30 153
57 332 27 178 53 353 59 389 15 90 14 122 -3 118 -7 -2 -170 -154 -362 -338
-706 -679 -1073 -1018 -1299 -1199 -90 -72 -209 -140 -222 -127 -15 15 -3 84
27 156 103 250 463 817 727 1146 219 274 555 515 1197 858 l39 21 63 345 c35
190 63 348 64 353 1 27 -44 -11 -165 -140 -517 -551 -1116 -1157 -1346 -1363
-247 -222 -378 -295 -387 -216 -13 115 278 640 586 1056 102 138 342 380 527
531 262 214 455 350 720 510 l160 96 57 264 c61 283 65 312 45 307 -7 -2 -101
-95 -208 -208 -730 -770 -1209 -1236 -1401 -1363 -146 -97 -180 -67 -118 104
71 196 330 630 554 929 217 290 700 702 1151 982 191 118 180 108 194 175 7
32 49 188 92 347 44 159 79 296 79 303 0 7 -6 13 -12 12 -7 0 -104 -105 -215
-232 -581 -668 -1107 -1215 -1323 -1377 -73 -55 -162 -100 -199 -100 -24 0
-31 5 -35 28 -19 84 121 401 314 711 112 180 167 247 386 461 386 380 761 690
1084 898 69 44 134 89 146 99 12 10 35 61 54 118 18 55 66 191 106 302 41 111
74 206 74 211 0 6 -12 5 -28 -3 -50 -26 -576 -218 -602 -221 -14 -1 -28 -3
-32 -3 -4 -1 -51 -65 -104 -143 -295 -430 -584 -823 -761 -1035 -166 -198
-327 -327 -367 -294 -49 41 32 297 190 609 67 132 131 228 311 470 62 84 113
157 113 162 0 5 -46 -7 -101 -25 -56 -19 -105 -32 -110 -29 -5 2 -32 -11 -60
-31 -29 -20 -55 -31 -58 -26 -4 6 -71 -10 -166 -39 -112 -34 -162 -45 -167
-37 -4 6 -10 8 -13 5 -10 -9 -195 -648 -195 -670 0 -39 28 -13 105 97 44 63
81 115 83 115 3 0 -4 -12 -14 -27 -51 -78 -220 -363 -235 -398 -23 -53 -289
-967 -289 -994 0 -44 29 -16 119 114 51 74 96 135 98 135 3 0 -3 -12 -13 -27
-104 -160 -269 -446 -289 -504 -30 -83 -245 -839 -245 -859 0 -11 6 -20 13
-20 8 0 91 101 187 225 95 124 175 225 177 225 2 0 -20 -33 -48 -72 -126 -178
-353 -527 -388 -597 -21 -42 -46 -102 -55 -133 -16 -56 -19 -59 -77 -89 -34
-17 -63 -29 -65 -26 -2 2 20 80 50 173 l53 170 -8 134 c-4 74 -19 200 -34 280
-39 214 -39 214 -21 229 9 8 18 12 19 10 3 -4 33 -101 85 -272 32 -102 46
-108 72 -27 9 30 74 233 143 450 69 217 128 420 132 450 8 67 -7 242 -45 545
-16 127 -32 253 -35 280 -3 28 27 -95 67 -272 48 -214 76 -323 85 -323 7 0 33
64 62 158 324 1022 294 885 261 1172 -28 248 -29 253 -48 245 -34 -14 -258
-76 -287 -79 -30 -3 -30 -4 -42 -90 -27 -205 -79 -354 -142 -409 -52 -45 -89
-33 -178 58 -57 59 -83 97 -128 187 -32 62 -62 112 -69 111 -6 -1 -67 -16
-136 -32 -69 -17 -131 -29 -137 -26 -25 9 -12 -26 43 -117 161 -265 194 -351
225 -588 17 -130 17 -407 0 -500 -26 -147 -86 -250 -146 -250 l-24 0 25 61
c59 145 85 345 65 509 -15 119 -28 170 -45 170 -14 0 -141 -171 -265 -357 -45
-68 -84 -123 -87 -123 -3 0 -27 35 -54 78 -44 67 -50 84 -50 130 0 52 -12 66
-37 41 -8 -8 -22 8 -50 58 -74 127 -156 287 -260 502 -56 118 -107 219 -112
224 -7 7 -15 7 -23 0 -7 -6 -106 -25 -220 -44 -115 -19 -208 -37 -208 -41 0
-4 55 -61 121 -125 216 -209 417 -446 560 -659 l67 -101 -22 -37 -22 -36 -28
57 c-45 92 -96 173 -110 173 -21 0 -26 -73 -26 -380 0 -168 -5 -310 -11 -341
-16 -82 -14 -321 5 -404 26 -118 62 -210 83 -213 24 -4 106 93 216 253 61 90
139 175 160 175 2 0 7 -23 10 -52 l6 -51 -79 -83 c-92 -96 -210 -251 -210
-276 0 -10 7 -18 17 -18 24 0 114 53 208 122 l80 59 3 -87 3 -86 -105 -107
c-58 -58 -115 -119 -127 -134 l-22 -28 -29 28 c-41 39 -168 198 -168 211 0 6
-4 12 -8 14 -15 6 -82 112 -82 130 0 10 -6 18 -14 18 -8 0 -16 7 -20 15 -3 9
0 15 10 15 14 0 15 11 9 83 -15 174 -75 328 -183 473 -67 90 -181 201 -270
264 -60 42 -61 45 -180 274 -66 127 -181 353 -256 501 -161 321 -151 305 -168
284 -8 -10 -51 -22 -118 -33 -175 -29 -495 -95 -670 -138 -91 -22 -178 -40
-195 -42 -29 -1 -36 -14 -163 -251 -402 -755 -656 -1178 -788 -1312 -74 -76
-104 -83 -104 -25 0 85 75 333 165 541 71 167 329 591 492 808 51 69 93 131
93 138 0 10 -10 10 -47 -1 -26 -8 -52 -13 -58 -10 -23 8 -50 -24 -195 -236
-156 -228 -225 -318 -241 -318 -25 0 13 165 76 336 20 53 35 98 32 100 -2 3
-55 -14 -116 -37 -62 -22 -115 -38 -118 -35 -3 3 -18 -3 -32 -13 -32 -22 -292
-127 -305 -123 -5 2 -12 -1 -15 -6 -11 -17 -165 -83 -179 -77 -12 4 -14 -4 -8
-47 24 -193 12 -421 -30 -586 -24 -98 -63 -172 -89 -172 -29 0 -94 72 -133
148 -43 84 -77 183 -117 336 -14 55 -27 102 -29 104 -3 2 -51 -22 -107 -54
-57 -31 -109 -57 -116 -57 -23 0 -14 -24 66 -186 180 -358 205 -448 218 -766
8 -228 -17 -393 -70 -459 -30 -37 -61 -31 -123 26 -83 76 -166 222 -285 500
-67 155 -229 573 -229 588 0 20 -20 8 -133 -74 -64 -46 -118 -82 -121 -78 -3
3 -6 0 -6 -6 0 -7 26 -45 59 -85 189 -233 372 -532 456 -745 67 -171 121 -496
132 -792 9 -249 -19 -381 -81 -388 -36 -4 -114 77 -180 187 -118 200 -372 764
-602 1338 -49 123 -91 223 -94 223 -9 0 -380 -346 -380 -355 0 -2 37 -34 83
-72 101 -86 283 -270 373 -378 91 -110 239 -319 315 -445 78 -130 170 -323
198 -412 58 -192 104 -535 105 -783 0 -169 -7 -221 -41 -292 -49 -105 -179 49
-363 431 -171 355 -442 1003 -710 1699 -30 75 -58 136 -64 134 -20 -7 -267
-300 -384 -456 -63 -86 -129 -173 -145 -194 -16 -21 -25 -42 -21 -46 5 -5 63
-45 129 -89 451 -307 909 -787 1060 -1114 88 -192 177 -715 179 -1058 1 -196
-8 -252 -44 -285 -18 -17 -20 -17 -49 1 -37 24 -95 97 -156 198 -171 284 -538
1027 -1000 2019 -76 163 -141 297 -144 297 -3 0 -24 -28 -46 -62 -182 -289
-331 -559 -438 -793 -36 -77 -75 -162 -88 -190 -12 -27 -23 -53 -23 -57 -1 -3
73 -44 164 -90 348 -176 636 -383 906 -652 204 -203 272 -302 384 -556 65
-149 159 -408 206 -570 41 -142 76 -318 69 -344 -2 -6 -6 -23 -9 -38 -8 -35
-41 -37 -82 -6 -56 43 -460 426 -574 544 -210 217 -346 391 -563 719 -145 220
-302 479 -437 723 -52 94 -97 172 -101 172 -17 0 -194 -520 -258 -762 -23 -84
-46 -161 -52 -171 -6 -11 -8 -21 -5 -24 3 -3 63 -31 133 -62 281 -125 605
-334 898 -579 138 -116 382 -366 467 -479 118 -157 271 -494 398 -873 99 -298
141 -499 120 -576 -15 -51 -28 -54 -83 -21 -56 34 -637 606 -774 761 -224 255
-472 609 -740 1057 -135 226 -337 584 -384 681 -13 27 -28 48 -34 48 -12 0
-67 -243 -114 -500 -58 -318 -112 -757 -127 -1040 -4 -69 -11 -131 -17 -138
-7 -9 20 -12 129 -12 418 0 864 -92 1157 -237 109 -54 117 -60 262 -207 361
-364 711 -881 732 -1081 4 -40 1 -60 -13 -84 -17 -28 -23 -31 -67 -31 -69 0
-243 60 -352 122 -130 73 -299 191 -650 453 -170 127 -375 276 -455 331 -249
172 -723 474 -744 474 -14 0 -4 -710 13 -965 25 -373 67 -775 102 -965 23
-127 23 -140 5 -140 -19 0 6 -92 74 -275 27 -71 76 -204 109 -295 364 -999
1046 -1802 1961 -2312 1046 -583 2438 -957 4000 -1073 430 -31 573 -37 1202
-42 788 -7 1316 9 2083 62 1795 125 3928 428 6057 861 420 85 452 91 1323 244
718 126 968 174 1385 267 1285 284 2462 662 3530 1133 102 45 262 112 355 150
911 365 1627 762 2143 1189 173 142 400 367 542 536 65 77 145 167 179 199 49
48 57 61 46 70 -12 9 -3 28 50 110 188 291 403 774 481 1084 114 450 125 1085
29 1712 -29 193 -90 490 -100 490 -5 0 -32 -27 -58 -60 -87 -108 -347 -402
-507 -575 -235 -253 -497 -506 -660 -636 -243 -194 -569 -429 -595 -429 -28 0
38 153 140 320 120 198 316 480 438 633 226 280 779 643 1177 772 62 20 80 32
64 43 -5 4 -23 57 -38 117 -31 120 -151 492 -185 568 -11 26 -25 47 -30 47 -5
0 -31 -28 -58 -63 -317 -415 -872 -1118 -1067 -1352 -123 -148 -252 -282 -288
-301 -28 -14 -28 -14 -28 20 0 135 336 855 516 1106 138 193 485 499 787 695
42 28 77 54 77 59 0 28 -178 336 -195 335 -5 0 -89 -111 -185 -246 -535 -753
-845 -1132 -901 -1098 -48 30 155 538 347 871 102 177 284 403 488 604 47 46
86 91 86 98 0 7 -4 11 -8 8 -4 -2 -27 13 -50 35 -24 21 -46 39 -50 39 -4 -1
-61 -73 -127 -162 -234 -315 -390 -501 -463 -552 -67 -46 -76 -23 -41 103 46
163 209 532 329 740 46 81 63 130 41 117 -12 -8 -63 33 -56 45 15 24 -22 4
-76 -41 -101 -84 -124 -62 -90 84 23 96 26 120 12 112 -4 -3 -39 26 -76 64
-37 39 -70 70 -74 70 -8 0 -108 -219 -151 -329 -18 -48 -150 -716 -150 -763 0
-33 25 -18 53 32 16 28 30 50 32 50 2 0 -20 -51 -49 -112 -61 -129 -80 -186
-96 -278 -6 -36 -36 -196 -66 -357 -30 -160 -54 -298 -54 -307 0 -37 31 -11
70 59 23 41 43 75 45 75 2 0 -27 -64 -66 -142 -38 -79 -76 -165 -84 -193 -14
-47 -135 -688 -135 -713 0 -36 33 1 89 98 35 60 65 110 66 110 2 0 -39 -87
-90 -193 -52 -106 -101 -222 -109 -257 -21 -88 -146 -762 -146 -789 0 -49 32
-9 148 189 68 116 125 210 127 210 2 0 -68 -141 -155 -314 -87 -173 -163 -332
-169 -353 -16 -55 -91 -461 -91 -489 0 -13 6 -24 13 -24 6 0 79 113 161 250
82 138 150 250 151 250 2 0 -79 -163 -180 -362 -100 -200 -190 -386 -198 -413
-22 -76 -62 -323 -54 -332 4 -4 17 -2 28 5 16 10 14 3 -11 -40 -49 -83 -56
-105 -81 -247 -18 -105 -20 -136 -10 -139 9 -3 8 -9 -4 -23 -10 -10 -25 -53
-34 -96 l-16 -78 -70 -12 c-109 -19 -102 -23 -91 56 l10 70 -38 58 -39 58 35
-32 c55 -53 61 -47 86 80 12 62 22 133 22 158 0 41 -28 133 -78 257 -12 28
-20 52 -18 52 2 0 27 -38 55 -85 29 -47 59 -85 67 -85 8 0 14 2 14 3 0 2 14
68 30 145 17 78 30 160 30 183 0 86 -71 389 -206 883 -30 109 -53 200 -52 201
2 2 71 -172 153 -386 108 -280 154 -389 164 -387 10 2 29 70 63 233 47 228 48
231 38 330 -11 108 -70 359 -174 735 -35 129 -63 236 -62 237 1 2 53 -131 116
-295 62 -163 126 -332 142 -374 16 -43 35 -78 42 -78 8 0 40 134 96 403 70
333 84 415 82 477 -3 81 -49 301 -113 548 -22 85 -38 156 -36 158 2 2 44 -108
93 -246 65 -183 93 -250 103 -248 11 2 34 97 88 353 40 193 73 364 73 381 0
56 -31 216 -86 438 -30 120 -53 220 -51 222 1 2 38 -100 81 -226 43 -127 84
-230 90 -230 7 0 33 104 64 258 30 141 67 318 83 392 25 112 29 148 24 210 -7
88 -41 245 -96 454 -22 82 -38 150 -36 152 2 2 38 -98 81 -221 51 -145 84
-225 92 -225 8 0 14 2 14 4 0 3 34 168 76 368 87 415 85 379 33 693 -32 195
-46 248 -60 240 -19 -12 -384 469 -613 808 -395 583 -726 1152 -1173 2017
-115 223 -240 455 -277 515 -729 1182 -2030 1932 -3791 2184 -155 22 -368 45
-580 61 -77 6 -148 12 -158 13 -14 2 -55 -86 -216 -468 -435 -1034 -576 -1349
-626 -1397 -34 -34 -39 -34 -59 -3 -39 59 -51 142 -51 355 0 200 1 208 33 333
84 325 253 667 442 897 65 79 190 201 248 243 23 17 42 35 42 41 0 11 -544 17
-558 6z m943 -745 c-262 -1142 -501 -1934 -657 -2178 -47 -73 -102 -133 -141
-153 -25 -14 -31 -14 -53 0 -59 40 -84 145 -91 394 -7 257 6 370 68 587 152
525 325 910 534 1190 77 104 233 259 314 313 35 23 65 41 67 39 2 -1 -17 -88
-41 -192z m-2565 -415 c262 -259 508 -668 814 -1347 106 -236 223 -722 202
-836 -5 -26 -12 -37 -25 -37 -24 0 -109 92 -164 176 -172 267 -516 1015 -935
2037 l-61 147 32 -17 c17 -10 78 -65 137 -123z m1047 -2 c-3 -7 -5 -2 -5 12 0
14 2 19 5 13 2 -7 2 -19 0 -25z m-13 -146 l-8 -107 -10 75 c-6 41 -8 77 -4 78
5 2 11 22 15 45 11 72 16 20 7 -91z m2437 -275 c-83 -199 -309 -715 -426 -972
-315 -694 -552 -1160 -722 -1418 -107 -163 -238 -287 -301 -287 -34 0 -69 43
-90 110 -25 81 -22 349 7 538 35 231 72 359 145 497 126 240 314 534 499 782
283 379 589 669 851 807 38 20 70 36 72 36 2 0 -14 -42 -35 -93z m2040 -12
c343 -72 639 -319 901 -752 42 -69 103 -182 135 -250 47 -100 62 -122 79 -123
27 0 35 -18 27 -63 -4 -25 4 -59 32 -127 128 -324 292 -907 356 -1262 10 -53
16 -68 30 -68 9 0 20 6 22 13 3 6 6 3 6 -7 1 -11 -6 -28 -15 -37 -15 -17 -13
-38 29 -296 26 -153 52 -316 58 -363 l11 -85 99 -58 c282 -166 589 -446 808
-737 157 -208 205 -308 267 -547 55 -217 77 -360 78 -523 1 -215 -28 -267
-122 -210 -45 27 -121 109 -186 200 -161 223 -494 798 -817 1407 -55 105 -82
131 -73 71 3 -18 8 -67 12 -108 6 -63 10 -75 25 -74 21 2 22 -4 2 -26 -12 -14
-11 -49 8 -287 l23 -272 29 -23 c288 -224 591 -571 713 -815 65 -128 129 -365
163 -602 34 -234 19 -416 -37 -438 -94 -36 -309 253 -693 935 -141 248 -141
248 -133 -43 l5 -225 104 -103 c124 -121 215 -237 255 -326 120 -261 242 -866
214 -1053 -9 -59 -38 -98 -67 -91 -59 16 -220 206 -418 496 -41 59 -80 107
-86 107 -9 0 -14 -58 -19 -218 l-8 -218 48 -79 c176 -297 344 -696 344 -815 0
-107 -23 -101 -273 73 -87 60 -162 106 -166 101 -4 -5 -15 -83 -24 -173 l-16
-163 38 -57 c60 -88 146 -241 228 -405 190 -379 274 -640 222 -692 -29 -28
-74 -3 -340 187 -138 98 -257 179 -264 179 -7 0 -19 -27 -29 -62 l-16 -63 78
-69 c142 -128 377 -370 466 -481 89 -112 176 -266 176 -312 0 -14 -8 -38 -17
-53 -22 -39 -80 -46 -197 -25 -151 26 -269 73 -556 217 -151 76 -283 138 -292
138 -10 0 -41 -15 -70 -34 -351 -224 -968 -355 -1800 -382 -198 -7 -207 -8
-210 -27 -3 -20 -9 -21 -178 -19 -212 3 -280 9 -280 28 0 16 -43 22 -240 29
-165 6 -480 28 -645 46 -98 10 -103 12 -265 96 -91 47 -177 94 -192 104 -14
10 -39 19 -56 19 -26 0 -36 -10 -80 -77 -71 -108 -73 -117 -58 -212 l13 -82
-41 6 c-22 4 -70 12 -106 18 l-64 12 -13 95 c-10 77 -18 103 -43 137 -22 32
-24 40 -10 31 10 -7 22 -10 25 -7 3 3 -6 89 -20 190 -24 172 -28 190 -70 277
-24 50 -40 92 -35 92 5 0 12 -4 15 -10 11 -18 34 -11 37 12 2 17 28 32 133 75
141 58 614 238 788 298 173 61 158 70 -198 122 -79 11 -209 17 -464 19 l-354
4 -73 177 c-69 166 -73 178 -57 195 9 10 19 18 23 18 3 0 19 -27 35 -60 37
-76 60 -81 51 -10 -3 28 -9 71 -12 98 l-6 47 71 69 c39 38 73 67 75 65 1 -2
13 -71 25 -154 27 -178 29 -185 45 -185 23 0 35 80 40 273 l5 188 53 58 c323
357 418 467 418 486 0 10 -10 15 -27 15 -32 0 -221 -49 -336 -86 -43 -15 -81
-24 -83 -21 -5 5 9 305 22 455 5 58 4 72 -8 72 -14 0 -56 -145 -131 -455 l-32
-130 -115 -47 c-63 -27 -118 -48 -121 -48 -3 0 -27 54 -54 120 l-49 121 22 21
c19 19 22 20 28 5 11 -30 34 -20 34 16 0 27 11 44 64 96 l64 63 11 -64 c6 -36
11 -75 11 -87 0 -15 5 -21 16 -19 12 2 38 60 84 183 63 171 69 183 126 244
130 140 314 356 314 369 0 11 -10 13 -46 7 -39 -6 -128 -26 -174 -40 -14 -5
-15 11 -3 147 7 84 15 202 18 263 3 60 7 116 10 125 2 8 18 152 35 320 30 306
77 707 105 906 27 191 17 215 -50 122 -89 -124 -191 -206 -239 -194 -17 4 -30
20 -43 53 -27 70 -24 340 6 517 61 365 142 649 239 840 70 139 202 335 337
504 l107 133 48 187 c27 103 70 259 96 347 56 192 61 215 43 215 -8 0 -54 -77
-103 -171 -234 -447 -521 -948 -653 -1137 -116 -167 -229 -269 -283 -255 -25
7 -49 61 -63 141 -29 176 56 687 174 1046 56 171 103 264 234 461 295 444 732
871 1142 1115 l101 61 65 106 c219 362 515 674 790 831 145 83 339 148 509
171 86 11 226 5 319 -14z m-4457 -38 c9 -36 19 -143 13 -137 -3 3 -12 33 -21
67 -9 34 -19 69 -22 78 -4 9 -1 15 9 15 8 0 17 -10 21 -23z m43 -279 c-3 -8
-6 -5 -6 6 -1 11 2 17 5 13 3 -3 4 -12 1 -19z m10 -70 c-3 -8 -6 -5 -6 6 -1
11 2 17 5 13 3 -3 4 -12 1 -19z m10 -70 c-3 -7 -5 -2 -5 12 0 14 2 19 5 13 2
-7 2 -19 0 -25z m10 -65 c-3 -10 -5 -4 -5 12 0 17 2 24 5 18 2 -7 2 -21 0 -30z
m10 -70 c-3 -10 -5 -2 -5 17 0 19 2 27 5 18 2 -10 2 -26 0 -35z m48 -273 c20
-129 38 -243 41 -252 14 -47 33 -6 83 177 30 107 56 193 58 191 2 -2 -10 -72
-27 -157 -45 -224 -70 -387 -70 -446 0 -29 22 -189 49 -355 28 -167 65 -399
83 -515 34 -222 47 -252 69 -170 6 23 42 155 80 292 37 138 68 246 68 241 1
-5 -22 -124 -49 -264 -28 -141 -60 -325 -72 -410 l-22 -154 73 -466 c83 -520
79 -502 95 -502 6 0 65 157 131 350 65 192 121 348 122 346 2 -2 -28 -120 -66
-262 -94 -355 -130 -516 -142 -642 -10 -108 -10 -109 66 -588 86 -550 82 -524
98 -524 7 0 64 155 142 389 71 215 131 389 132 387 2 -2 -24 -106 -58 -232
-115 -434 -166 -663 -175 -788 -5 -68 3 -135 50 -426 42 -264 53 -346 43 -352
-20 -13 -97 -41 -101 -37 -1 2 -22 146 -45 319 -23 173 -48 337 -56 364 -13
46 -12 50 11 87 33 53 31 61 -17 57 l-41 -3 -95 225 c-52 124 -96 232 -99 240
-2 8 37 -69 88 -172 88 -176 118 -219 118 -165 0 13 -29 235 -65 493 -76 542
-76 542 -245 938 -55 127 -98 231 -97 232 1 1 49 -94 106 -212 59 -121 110
-214 118 -214 7 0 13 3 13 6 0 4 -27 205 -61 448 -67 487 -71 504 -188 816
-38 102 -68 186 -67 187 1 2 29 -58 61 -132 56 -130 85 -167 85 -109 0 63
-132 975 -150 1035 -11 37 -40 120 -65 185 -48 128 -55 165 -10 59 28 -66 55
-86 55 -40 0 13 -22 186 -50 382 -45 321 -56 419 -45 388 2 -5 20 -116 40
-245z m192 138 c-3 -8 -6 -5 -6 6 -1 11 2 17 5 13 3 -3 4 -12 1 -19z m-7440
-1050 c-3 -8 -6 -5 -6 6 -1 11 2 17 5 13 3 -3 4 -12 1 -19z m-3054 -299 c135
-68 310 -178 454 -285 453 -336 897 -828 1109 -1228 53 -100 55 -107 48 -158
-5 -42 -100 -332 -237 -722 l-13 -39 -55 211 c-34 134 -59 212 -66 212 -18 0
-17 -25 17 -236 17 -104 33 -229 36 -279 7 -105 15 -110 -98 70 -107 171 -118
196 -118 257 0 99 -96 408 -186 597 -94 199 -253 397 -397 495 l-57 39 -167
336 c-221 447 -383 781 -377 781 2 0 50 -23 107 -51z m-185 -306 c-98 -147
-472 -692 -509 -742 -12 -16 -19 -36 -16 -45 3 -8 34 -29 69 -47 35 -17 94
-49 132 -71 l69 -40 117 61 c64 33 120 61 124 61 3 0 -21 -37 -54 -82 -33 -45
-60 -89 -60 -98 0 -11 53 -52 142 -111 234 -155 498 -357 666 -511 53 -48 55
-50 92 -181 74 -252 130 -390 199 -485 41 -55 85 -82 138 -82 41 0 64 17 99
76 10 16 15 7 38 -66 15 -47 43 -146 62 -220 l34 -135 -32 -93 c-22 -66 -34
-88 -38 -75 -4 10 -31 120 -60 246 -36 154 -58 227 -67 227 -18 0 -17 -22 17
-246 16 -110 34 -251 40 -314 l11 -115 -77 -225 c-42 -124 -78 -226 -79 -228
-2 -2 -30 34 -64 80 -53 73 -67 102 -112 236 l-51 152 26 31 c45 53 60 127 59
289 -1 173 -21 291 -62 374 -16 34 -75 129 -130 211 -277 416 -603 735 -898
876 -93 45 -103 46 -103 20 0 -18 178 -429 229 -529 49 -97 4 -27 -140 218
-96 162 -160 260 -169 260 -9 0 -117 -135 -246 -307 -127 -170 -286 -379 -352
-465 -67 -87 -122 -164 -122 -171 0 -8 22 -24 50 -37 57 -26 41 -34 165 75 44
39 108 92 142 118 l62 48 50 -100 50 -99 -69 -93 c-39 -51 -70 -97 -70 -103 0
-6 58 -44 128 -84 253 -145 235 -129 336 -308 315 -561 534 -882 650 -953 18
-12 47 -21 64 -21 25 0 33 -5 37 -22 99 -417 164 -732 153 -744 -4 -3 -80 49
-171 116 l-164 121 -6 127 c-7 138 -41 322 -82 441 -31 94 -70 162 -155 276
-232 312 -565 593 -909 767 -141 71 -161 78 -161 53 0 -16 184 -367 362 -690
61 -110 122 -220 135 -245 l25 -45 -29 31 c-15 17 -77 86 -137 153 -59 66
-114 121 -120 121 -7 0 -56 -54 -110 -120 l-98 -120 -52 30 c-28 17 -102 58
-165 92 l-115 62 70 63 c38 34 115 98 171 140 56 43 102 84 102 91 1 21 -112
162 -130 162 -9 0 -80 -83 -170 -200 -129 -167 -157 -199 -174 -194 -57 17
-75 17 -75 -2 0 -11 9 -30 20 -44 l19 -25 -35 -42 c-42 -51 -43 -68 -4 -88 38
-20 49 -19 76 6 l23 22 78 -122 c471 -734 865 -1308 1026 -1494 54 -61 129
-117 159 -117 11 0 18 -7 18 -19 0 -10 27 -127 60 -260 33 -133 60 -246 60
-252 0 -11 -128 92 -294 235 l-100 86 -81 157 c-114 222 -190 336 -288 429
-132 127 -330 265 -540 379 -84 45 -87 48 -68 62 12 8 21 19 21 25 0 16 -123
177 -135 178 -5 0 -32 -27 -59 -60 -27 -32 -53 -57 -57 -54 -4 2 -62 26 -127
52 l-119 48 73 139 c41 76 74 147 74 157 0 25 -80 138 -97 138 -7 0 -31 -12
-53 -26 -63 -42 -71 -26 -44 86 l17 68 -69 101 c-41 62 -74 101 -83 99 -8 -2
-54 -82 -102 -178 l-89 -175 -85 -372 c-47 -204 -85 -376 -85 -382 0 -38 39 9
125 149 54 88 99 160 101 160 2 0 -19 -42 -47 -92 -27 -51 -93 -178 -145 -281
l-95 -188 -59 -259 c-33 -142 -60 -261 -60 -264 0 -3 38 -6 85 -6 l85 0 48 75
c71 112 76 117 32 34 -22 -42 -40 -80 -40 -86 0 -6 46 -12 111 -16 106 -5 111
-7 132 -34 225 -286 552 -644 752 -823 39 -34 59 -55 45 -47 -78 47 -274 147
-288 147 -10 0 -53 -32 -97 -70 -70 -62 -84 -70 -110 -65 -77 13 -270 36 -360
41 -55 4 -106 10 -114 14 -10 5 16 46 98 154 61 81 111 154 111 162 0 17 -423
227 -447 222 -8 -2 -53 -75 -99 -164 -65 -125 -90 -185 -112 -270 l-29 -109
-66 -3 c-37 -2 -67 0 -67 3 0 4 10 43 21 88 26 101 22 197 -18 466 l-28 184
-42 20 c-52 25 -55 37 -8 37 21 0 35 5 35 12 0 7 -21 128 -46 271 -25 142 -44
263 -42 269 2 6 37 -111 78 -260 l73 -272 47 0 c26 0 68 3 93 6 l45 6 68 272
c65 255 68 277 67 376 -1 102 -37 379 -89 684 -13 82 -23 150 -22 152 2 1 39
-139 83 -312 61 -240 83 -314 94 -312 23 5 200 722 201 810 0 81 -30 319 -71
562 -16 98 -28 180 -26 182 1 2 32 -121 68 -274 46 -200 69 -278 79 -280 12
-2 38 90 122 430 l106 433 -8 120 c-9 128 -25 242 -66 474 -14 79 -23 145 -21
147 1 2 32 -114 67 -256 39 -158 68 -260 76 -260 7 0 49 149 108 385 93 373
96 388 96 498 0 63 -7 185 -15 273 -8 87 -17 184 -20 214 -2 30 12 -38 32
-152 38 -211 52 -246 71 -175 5 17 55 219 112 448 l104 417 -12 158 c-24 301
-24 302 5 157 28 -140 44 -165 62 -95 6 20 19 71 30 112 35 137 22 55 -24
-140 -49 -210 -53 -240 -30 -240 8 0 15 4 15 8 0 5 7 17 15 28 8 10 -10 -35
-41 -101 -53 -112 -62 -144 -150 -526 -52 -224 -94 -416 -94 -428 0 -31 26
-25 40 9 7 17 17 33 22 36 5 3 -2 -16 -15 -42 -79 -156 -106 -242 -186 -589
-45 -192 -81 -359 -81 -372 0 -42 27 -24 69 47 23 39 44 70 47 70 3 0 -26 -60
-64 -132 -100 -192 -116 -237 -177 -505 -30 -133 -55 -244 -55 -246 0 -11 102
-39 121 -34 11 3 19 0 19 -7 0 -11 152 -67 180 -66 9 1 49 70 102 178 112 225
188 355 288 488 44 58 80 110 80 115 0 16 -31 59 -42 59 -6 0 -29 -21 -52 -47
-129 -150 -244 -252 -267 -237 -28 17 20 183 111 388 29 64 50 123 46 131 -10
27 -118 175 -127 175 -5 0 -9 7 -9 16 0 8 -14 36 -31 60 -17 25 -29 48 -26 50
3 3 68 -15 144 -40 77 -25 147 -46 155 -46 9 0 44 50 86 123 90 156 146 235
264 372 113 130 373 385 481 470 46 37 76 68 76 79 1 25 -100 206 -115 206 -6
0 -77 -91 -157 -202 -299 -415 -542 -705 -630 -752 -43 -24 -67 -16 -67 22 0
81 85 318 196 547 82 170 115 224 226 363 400 503 779 869 1048 1012 41 21 76
40 78 40 1 0 -39 -62 -90 -137z m-1331 -35 c-3 -8 -6 -5 -6 6 -1 11 2 17 5 13
3 -3 4 -12 1 -19z m-170 -35 c-3 -10 -5 -4 -5 12 0 17 2 24 5 18 2 -7 2 -21 0
-30z m160 -5 c-3 -8 -6 -5 -6 6 -1 11 2 17 5 13 3 -3 4 -12 1 -19z m18173 -56
c302 -173 613 -497 902 -942 166 -255 203 -334 232 -508 54 -308 35 -536 -46
-578 -27 -14 -33 -14 -73 6 -152 73 -406 492 -775 1275 -150 316 -360 781
-360 795 0 11 58 -12 120 -48z m-18183 16 c-3 -8 -6 -5 -6 6 -1 11 2 17 5 13
3 -3 4 -12 1 -19z m3558 -85 c-16 -27 -16 -27 -11 -3 3 14 6 34 6 45 1 18 1
18 11 3 7 -13 5 -25 -6 -45z m558 -253 c3 -11 1 -18 -4 -14 -5 3 -9 12 -9 20
0 20 7 17 13 -6z m66 -222 c41 -135 40 -131 20 -135 -12 -3 -20 17 -38 99 -13
57 -25 113 -28 126 -3 12 -1 22 4 22 4 0 23 -51 42 -112z m6749 -131 l62 -62
-63 -56 c-34 -31 -83 -81 -107 -112 -25 -31 -48 -56 -52 -57 -3 0 -18 20 -32
45 l-26 44 71 131 c39 71 74 130 78 130 4 0 35 -28 69 -63z m-7802 -103 c11
-42 -2 -36 -34 17 l-32 50 30 -21 c16 -12 33 -32 36 -46z m8145 -275 c88 -106
180 -227 237 -310 l31 -46 -47 -34 c-43 -31 -174 -142 -248 -211 l-32 -30 -84
134 c-46 73 -92 147 -102 164 l-18 30 73 223 c68 211 73 222 88 203 9 -11 55
-66 102 -123z m-8037 -410 l24 -105 -25 -73 c-29 -88 -28 -125 5 -129 13 -2
29 1 36 7 11 9 15 2 20 -33 7 -43 5 -48 -42 -108 -90 -115 -181 -291 -223
-428 -11 -38 -22 -70 -23 -70 -1 0 -26 29 -55 65 -33 41 -50 69 -45 77 4 7 61
91 126 186 65 95 118 179 118 187 0 37 -34 6 -125 -112 -123 -161 -118 -156
-101 -103 8 25 54 168 101 318 60 188 101 299 133 359 25 48 47 83 49 77 2 -5
14 -57 27 -115z m8662 4 c8 -32 14 -82 14 -111 0 -67 -17 -76 -67 -35 -60 48
-60 51 -12 136 23 42 45 75 47 72 2 -2 11 -30 18 -62z m-10783 -226 c-4 -7
-48 -68 -97 -134 l-88 -121 -69 37 c-38 20 -69 38 -69 41 0 12 305 188 328
190 2 0 -1 -6 -5 -13z m10643 -128 c25 -57 63 -145 84 -196 l38 -92 -128 -85
c-71 -48 -132 -91 -136 -97 -3 -6 -37 35 -75 92 -62 93 -67 105 -55 124 7 11
52 88 101 170 110 188 116 198 120 193 3 -2 25 -51 51 -109z m-778 -8 c28 -24
52 -47 52 -51 0 -4 -30 -43 -66 -86 -36 -43 -86 -107 -112 -141 l-46 -63 -40
61 -41 61 45 92 c25 50 58 120 73 155 l26 63 29 -23 c15 -13 51 -44 80 -68z
m-11731 57 c-3 -8 -6 -5 -6 6 -1 11 2 17 5 13 3 -3 4 -12 1 -19z m4539 -100
c31 -104 32 -114 17 -125 -9 -7 -18 -11 -21 -9 -9 10 -52 231 -47 244 9 24 16
9 51 -110z m381 -316 l-73 -251 -110 -54 -110 -55 -15 104 -15 104 32 31 31
30 19 -66 c13 -44 23 -65 33 -63 8 2 33 62 62 154 l48 151 82 87 c45 48 83 85
85 83 2 -2 -29 -117 -69 -255z m313 134 c0 -2 -8 -10 -17 -17 -16 -13 -17 -12
-4 4 13 16 21 21 21 13z m-127 -180 c-54 -79 -108 -149 -121 -155 -21 -10 -22
-10 -10 7 78 105 221 292 225 292 2 0 -40 -65 -94 -144z m7825 39 c-3 -3 -9 2
-12 12 -6 14 -5 15 5 6 7 -7 10 -15 7 -18z m-729 -106 c28 -33 51 -64 51 -68
0 -4 -47 -49 -105 -100 -58 -51 -132 -124 -166 -162 l-62 -69 -22 32 -23 33
62 90 c34 50 93 138 131 198 37 59 71 107 76 107 4 0 30 -27 58 -61z m-11869
11 c-6 -11 -13 -20 -16 -20 -2 0 0 9 6 20 6 11 13 20 16 20 2 0 0 -9 -6 -20z
m3720 -74 c-9 -46 -19 -62 -66 -106 -59 -56 -76 -59 -131 -23 l-25 17 37 19
c20 10 71 52 113 92 43 40 78 69 80 64 2 -4 -2 -33 -8 -63z m8718 -148 c47
-164 63 -248 55 -291 -10 -49 -41 -34 -136 64 l-88 90 18 28 c81 125 119 181
124 181 3 0 16 -33 27 -72z m-1624 -176 l-7 -109 124 -60 c68 -33 134 -71 147
-85 l23 -25 -61 -139 c-34 -77 -65 -143 -70 -147 -4 -5 -41 34 -81 87 -41 53
-79 96 -86 96 -7 0 -15 -25 -19 -62 l-8 -63 -23 105 c-16 71 -22 121 -18 155
6 50 76 355 82 355 2 0 0 -49 -3 -108z m-6373 -54 c-23 -41 -131 -374 -131
-404 0 -6 -171 -87 -175 -82 -1 2 19 70 46 152 l48 149 118 119 c65 65 119
118 120 118 2 0 -10 -24 -26 -52z m-1291 -66 c-1 -15 -12 -40 -26 -57 -27 -32
-27 -32 -3 52 13 46 29 48 29 5z m-3763 -14 c-3 -8 -6 -5 -6 6 -1 11 2 17 5
13 3 -3 4 -12 1 -19z m12833 -87 c22 -51 39 -97 38 -101 -2 -4 -48 -42 -103
-85 -55 -42 -118 -95 -141 -117 l-41 -39 -31 41 -31 42 50 72 c28 39 85 121
127 183 43 61 80 108 84 105 3 -4 25 -49 48 -101z m-8460 24 c0 -14 -4 -25 -9
-25 -12 0 -23 29 -15 41 10 18 24 9 24 -16z m9592 -254 l-68 -263 -33 -14
c-18 -8 -31 -10 -29 -5 2 5 46 131 98 279 52 149 96 270 97 268 2 -1 -28 -121
-65 -265z m-10162 36 l12 -117 -127 -153 c-71 -83 -132 -156 -137 -162 -5 -6
-14 -3 -23 6 -13 13 -9 35 41 194 64 204 65 206 148 334 l61 95 6 -40 c4 -21
13 -92 19 -157z m-621 114 c19 -72 23 -91 19 -91 -3 0 -25 31 -50 68 l-45 68
33 -4 c29 -4 35 -9 43 -41z m8682 -47 c49 -31 91 -60 95 -65 3 -5 -4 -37 -15
-72 -32 -96 -52 -190 -70 -324 l-16 -122 -116 145 -115 145 60 174 c40 113 66
175 75 175 8 0 54 -25 102 -56z m-6712 -221 c-45 -65 -159 -235 -254 -378
l-173 -260 -109 -51 -108 -50 3 125 3 126 157 151 c86 84 158 151 160 149 2
-2 -11 -50 -27 -108 -34 -117 -37 -137 -18 -137 8 0 110 124 227 275 117 151
215 275 217 275 2 0 -33 -53 -78 -117z m8320 -321 c1 -8 -4 -12 -11 -10 -10 4
-149 312 -147 328 1 10 158 -305 158 -318z m-8960 259 c13 -39 10 -46 -29 -66
-29 -15 -30 -15 -36 12 -3 16 -8 34 -10 42 -5 16 47 64 57 53 4 -4 11 -22 18
-41z m-701 -89 c-4 -98 -9 -128 -30 -173 -15 -32 -35 -60 -51 -68 -24 -13 -31
-12 -73 10 -79 41 -79 39 42 202 60 80 111 146 113 147 2 0 2 -53 -1 -118z
m8528 -96 c-99 -117 -130 -169 -186 -319 l-37 -98 -60 68 c-81 93 -80 89 -31
114 48 24 209 184 278 277 l45 60 22 -20 22 -20 -53 -62z m810 -251 c-4 -12
-126 -89 -130 -84 -2 2 -33 42 -69 89 -77 97 -81 68 31 229 l66 95 53 -160
c29 -87 51 -164 49 -169z m-10026 32 c59 -122 111 -231 114 -243 4 -13 -15
-83 -51 -186 l-58 -166 -100 312 -101 312 18 31 c10 17 24 69 30 117 11 78 13
84 26 65 8 -11 63 -120 122 -242z m10740 182 c-26 -90 -80 -363 -85 -434 -5
-64 0 -118 24 -268 17 -103 31 -198 31 -210 0 -18 -13 -27 -64 -48 l-63 -26
-32 229 c-23 171 -39 249 -61 310 -17 45 -30 88 -30 95 0 20 132 193 147 193
7 0 13 6 13 14 0 13 122 187 127 182 2 -1 -2 -18 -7 -37z m-11780 -279 c0 -11
-69 -90 -79 -90 -3 1 -23 16 -44 34 l-38 34 58 15 c70 18 103 20 103 7z m1721
-133 c-6 -6 -13 5 -20 28 -14 52 -1 68 16 20 8 -24 10 -42 4 -48z m8965 50
c11 -17 28 -44 37 -58 l17 -26 -89 -78 c-95 -83 -176 -175 -208 -238 l-19 -37
-33 34 -32 33 123 164 c68 91 134 181 148 202 14 20 27 37 30 37 3 0 14 -15
26 -33z m-1084 -203 l47 -24 -35 -82 c-20 -46 -41 -95 -46 -110 -5 -16 -13
-28 -18 -28 -4 0 -20 67 -37 149 l-30 149 36 -15 c20 -9 57 -26 83 -39z
m-8356 -90 c20 -48 13 -69 -42 -129 -25 -27 -43 -41 -40 -31 4 11 19 59 33
108 15 48 28 88 30 88 2 0 11 -16 19 -36z m8617 -47 l87 -51 0 -68 c0 -37 7
-88 15 -112 l16 -45 -57 -126 c-31 -69 -60 -125 -63 -125 -9 1 -241 307 -241
318 0 6 20 74 45 151 l46 141 32 -16 c18 -9 71 -39 120 -67z m-6925 -23 c-18
-25 -92 -130 -164 -233 -81 -116 -141 -191 -158 -199 -15 -8 -29 -12 -32 -10
-4 5 376 488 384 488 2 0 -12 -21 -30 -46z m-2683 -68 c105 -89 240 -223 297
-294 56 -70 55 -67 113 -347 61 -290 63 -265 -45 -580 -51 -148 -96 -273 -99
-277 -4 -4 -18 3 -33 15 -20 17 -53 94 -147 350 l-121 328 21 28 c44 59 47
214 8 461 -20 126 -73 348 -92 385 -10 19 -9 19 9 5 10 -8 51 -41 89 -74z
m2234 -13 c-114 -406 -125 -436 -155 -449 -162 -71 -195 -82 -190 -66 3 9 31
95 61 191 54 169 57 175 102 215 26 23 81 71 123 108 41 37 76 68 77 68 1 0
-7 -30 -18 -67z m-629 25 c0 -14 -40 -58 -52 -58 -17 0 -7 50 14 64 22 16 38
13 38 -6z m-534 -156 c19 -100 9 -151 -32 -179 -25 -16 -28 -15 -102 24 -56
29 -77 45 -76 59 0 10 38 72 84 137 l84 119 13 -37 c7 -21 20 -76 29 -123z
m10083 -139 c2 -36 -20 0 -74 124 -79 180 -79 183 4 23 39 -74 70 -141 70
-147z m-12993 177 l56 -70 -43 -48 c-72 -79 -149 -142 -173 -142 -14 0 -4 59
24 142 31 91 70 188 76 188 2 0 29 -31 60 -70z m11849 -67 c49 -36 64 -53 61
-68 -2 -11 -20 -76 -40 -145 -49 -165 -80 -346 -73 -429 l5 -65 -36 44 c-21
24 -89 108 -153 187 l-117 145 51 154 c50 150 52 154 80 154 30 0 76 21 116
51 13 11 28 19 33 19 5 0 38 -21 73 -47z m836 -115 c32 -67 59 -126 59 -133 0
-6 -29 -30 -64 -52 l-65 -41 -89 72 -89 72 86 106 c47 59 90 104 94 101 5 -3
35 -59 68 -125z m-12323 -236 c89 -97 103 -116 91 -127 -8 -8 -54 -45 -104
-83 l-89 -69 -149 72 c-81 40 -149 76 -149 80 -1 4 50 77 113 162 l114 155 34
-39 c18 -21 81 -89 139 -151z m-1501 136 c-3 -8 -6 -5 -6 6 -1 11 2 17 5 13 3
-3 4 -12 1 -19z m4753 -103 c16 -49 29 -89 27 -91 -1 -1 -30 -15 -63 -32 l-61
-31 -17 82 -17 82 48 42 c26 23 49 40 50 39 2 -2 17 -43 33 -91z m-649 -98
c-7 -7 -12 0 -16 19 -4 16 -11 45 -16 64 -16 61 -8 57 17 -9 16 -42 22 -67 15
-74z m9386 -184 c-75 -101 -207 -306 -243 -375 -13 -27 -26 -48 -28 -48 -10 0
-216 244 -216 256 0 8 10 14 23 14 52 0 181 116 341 306 l58 70 65 -68 66 -67
-66 -88z m9305 120 c-30 -42 -243 -293 -436 -513 -335 -382 -665 -716 -901
-913 -130 -109 -651 -504 -692 -526 -62 -32 -57 9 20 160 163 321 525 838 727
1039 293 292 781 599 1185 746 113 41 122 42 97 7z m-19272 -42 c0 -21 -16 -2
-25 29 -7 24 -7 24 9 5 8 -11 16 -27 16 -34z m-1518 -300 c28 -19 36 -31 32
-47 -5 -17 2 -22 48 -35 38 -11 114 -58 268 -164 189 -130 254 -169 323 -189
9 -3 17 -13 17 -21 0 -9 36 -163 79 -343 113 -464 153 -683 129 -708 -4 -4
-57 21 -116 56 l-109 62 -5 66 c-7 84 -51 217 -125 375 -122 259 -253 479
-346 582 -99 110 -379 322 -554 421 -29 16 -53 31 -53 34 0 3 39 28 87 55 l87
51 101 -84 c55 -46 117 -96 137 -111z m2217 97 l21 -62 -27 -29 -28 -28 -17
73 c-17 73 -17 73 5 90 12 10 23 18 24 18 0 0 11 -28 22 -62z m1168 0 c-25
-35 -63 -90 -86 -123 -39 -55 -67 -82 -76 -73 -4 4 195 258 202 258 2 0 -16
-28 -40 -62z m-1645 -253 c3 -14 -330 -410 -339 -402 -3 4 47 166 153 498 8
25 29 68 46 95 l31 49 53 -112 c29 -62 54 -120 56 -128z m1202 170 c-15 -26
-39 -86 -54 -133 l-27 -87 -118 -47 c-65 -26 -119 -47 -120 -45 -1 1 10 38 24
82 l26 79 145 102 c80 56 147 100 148 98 2 -1 -9 -23 -24 -49z m9226 -95 c22
-44 36 -80 30 -80 -9 0 -41 63 -71 138 -19 49 3 18 41 -58z m-256 -149 c20
-32 36 -62 36 -65 0 -3 -42 -33 -92 -67 -107 -70 -165 -116 -225 -172 l-42
-41 -68 60 c-36 33 -68 65 -70 71 -2 6 43 38 99 71 57 33 153 92 213 131 61
39 110 70 111 71 1 0 18 -27 38 -59z m-14019 -421 c83 -302 127 -446 137 -448
10 -2 21 28 42 113 15 63 31 113 34 111 4 -2 33 -15 64 -29 l57 -25 -15 -64
c-27 -114 -28 -118 -12 -118 8 0 36 34 62 75 32 51 51 72 61 68 8 -3 15 -7 15
-9 0 -2 -51 -104 -114 -226 -113 -221 -114 -225 -150 -385 -20 -89 -36 -169
-36 -177 0 -26 27 -18 56 17 l26 32 -21 -35 c-95 -154 -100 -165 -130 -298
-34 -145 -36 -169 -21 -174 6 -2 0 -18 -14 -36 -13 -19 -29 -61 -36 -96 -6
-34 -15 -68 -19 -74 -8 -13 -171 -30 -171 -18 0 4 7 36 16 71 l16 65 -36 77
-36 78 33 -39 c20 -24 39 -37 48 -34 9 3 26 52 43 123 37 150 33 217 -23 410
-22 76 -39 140 -37 142 1 1 26 -51 56 -118 38 -85 58 -119 69 -117 10 2 26 49
53 153 36 139 39 158 34 255 -6 134 -41 371 -122 828 -35 200 -64 366 -63 370
1 14 16 -35 134 -468z m3914 343 l31 -76 -44 -66 c-25 -36 -47 -81 -51 -98 -7
-33 -7 -33 35 -33 22 0 57 7 77 15 44 18 45 17 69 -74 l18 -64 -100 -93 c-54
-52 -102 -94 -105 -94 -4 0 -112 80 -127 95 -2 2 23 40 57 84 34 44 61 87 61
95 0 33 -29 13 -95 -64 -43 -51 -72 -77 -79 -71 -6 4 -35 26 -63 49 l-53 41
162 215 c90 119 166 216 169 216 4 0 21 -34 38 -77z m570 -55 c14 -47 12 -51
-61 -89 l-36 -19 -11 52 c-6 28 -10 52 -9 53 11 9 85 44 94 45 6 0 16 -19 23
-42z m-1552 -45 c47 -36 127 -102 177 -145 84 -73 92 -83 103 -131 23 -107 17
-163 -37 -322 -28 -82 -54 -155 -58 -162 -5 -8 -63 132 -150 364 -126 337
-141 383 -136 421 4 23 9 42 11 42 3 0 44 -30 90 -67z m-2274 -190 c-71 -129
-89 -157 -103 -161 -12 -4 -12 -1 1 19 9 13 42 66 74 117 32 50 60 92 62 92 2
0 -13 -30 -34 -67z m4313 -55 c-168 -245 -242 -372 -261 -447 l-19 -71 -119 0
-119 0 7 23 c5 12 9 60 11 107 l3 85 193 139 c106 76 236 172 288 212 52 40
96 74 98 74 1 0 -36 -55 -82 -122z m8226 74 c4 -4 -51 -126 -122 -270 l-129
-264 -78 43 c-43 23 -81 47 -85 53 -21 30 0 136 66 341 l32 100 39 7 c46 7
267 -1 277 -10z m-463 -54 c-22 -42 -23 -42 -30 -18 -14 48 -10 59 19 62 15 2
28 3 30 2 2 -1 -7 -22 -19 -46z m655 20 c70 -17 206 -65 206 -73 0 -2 -34 -52
-76 -112 -94 -134 -170 -256 -235 -379 -28 -52 -52 -94 -54 -94 -9 0 -185 103
-185 108 0 4 33 99 73 212 41 113 86 242 101 287 l27 82 32 -5 c18 -4 67 -15
111 -26z m-846 -53 c-3 -3 -9 2 -12 12 -6 14 -5 15 5 6 7 -7 10 -15 7 -18z
m-40 -119 c34 -63 62 -116 62 -119 0 -11 -263 132 -272 147 -7 13 4 23 64 51
40 19 75 35 78 35 3 0 33 -51 68 -114z m-9001 -166 c-28 -39 -180 -210 -184
-207 -2 2 20 75 48 162 l51 158 48 -48 c41 -41 47 -51 37 -65z m10901 23 c46
-102 65 -153 59 -160 -4 -3 -35 -11 -69 -17 l-63 -12 -65 54 c-36 30 -66 58
-67 61 -2 6 157 140 168 140 3 1 20 -29 37 -66z m-10813 -236 c-81 -87 -186
-220 -209 -264 -9 -18 -16 -43 -16 -58 0 -22 4 -25 39 -25 30 0 88 24 238 99
185 91 200 98 211 81 10 -16 4 -22 -46 -51 -59 -33 -328 -209 -418 -274 l-52
-36 -42 21 -43 22 52 52 c48 49 65 86 39 86 -6 0 -37 -25 -69 -55 -88 -84
-113 -74 -78 33 25 77 53 121 234 365 l130 177 48 -50 49 -50 -67 -73z m-2833
47 c68 -31 124 -57 126 -59 3 -3 -391 -275 -426 -294 -81 -43 -52 53 86 282
42 70 80 127 84 127 4 0 62 -25 130 -56z m13371 -44 c-5 -4 -32 -16 -61 -28
-77 -31 -190 -100 -326 -200 -65 -48 -124 -91 -131 -96 -12 -9 -79 17 -90 34
-2 3 61 45 141 93 79 49 203 128 276 177 l133 88 33 -31 c17 -17 29 -34 25
-37z m8302 25 c119 -26 285 -87 285 -104 0 -3 -57 -33 -127 -66 -410 -190
-784 -387 -1168 -615 -308 -183 -491 -283 -585 -319 -150 -58 -260 -65 -260
-17 0 37 65 155 130 236 202 251 645 663 843 783 69 42 210 89 332 112 106 19
449 13 550 -10z m-18266 -74 c-14 -4 -29 18 -29 44 0 17 4 15 20 -10 12 -19
16 -31 9 -34z m-2998 -101 c68 -34 199 -103 292 -152 l167 -90 -132 -62 c-73
-34 -223 -109 -333 -166 -441 -228 -684 -348 -760 -374 -146 -50 -275 -45
-275 9 0 31 49 122 107 198 111 146 471 489 687 655 91 70 68 71 247 -18z
m1133 31 c-3 -3 -15 6 -27 18 l-22 24 27 -19 c14 -10 24 -21 22 -23z m2268
-328 c-15 -28 -102 -328 -102 -352 0 -25 17 -27 50 -5 14 9 2 -4 -27 -30 -39
-35 -55 -58 -65 -94 l-14 -47 -129 -3 -130 -3 0 45 c0 37 -9 57 -60 132 l-60
89 -60 2 c-33 2 -80 6 -105 9 l-44 6 128 50 c70 27 131 47 134 43 6 -5 -17
-55 -40 -87 -11 -16 -4 -25 52 -77 36 -33 72 -60 81 -61 11 0 28 40 64 155
l48 154 71 26 c120 43 211 73 214 70 2 -2 -1 -12 -6 -22z m10040 -105 c136
-192 188 -345 125 -362 -99 -27 -295 42 -525 184 l-70 44 146 69 c118 55 270
125 279 127 1 0 21 -28 45 -62z"/>
<path d="M6790 11906 c0 -16 92 -233 285 -671 162 -367 260 -573 287 -602 27
-29 78 -31 102 -4 46 51 83 232 73 355 -18 214 -150 484 -324 666 -94 99 -178
163 -293 224 -89 47 -130 57 -130 32z"/>
<path d="M3887 8778 c-31 -140 -32 -158 -13 -158 16 0 116 163 116 188 0 23
-47 92 -63 92 -7 0 -23 -48 -40 -122z"/>
<path d="M9850 13837 c-47 -15 -91 -25 -97 -22 -19 7 -16 -16 19 -172 25 -108
37 -143 48 -143 11 0 30 47 69 170 29 94 51 176 49 183 -2 9 -26 5 -88 -16z"/>
<path d="M13949 12933 c-7 -21 -13 -45 -14 -53 0 -9 -4 -20 -7 -26 -18 -29
-40 -201 -40 -312 2 -305 105 -557 328 -802 38 -41 78 -94 88 -118 10 -23 23
-42 28 -42 5 0 6 -4 3 -10 -3 -5 -1 -10 5 -10 6 0 8 -4 5 -10 -3 -5 -2 -10 3
-10 5 0 9 -6 9 -13 0 -19 81 -160 116 -202 30 -37 57 -46 57 -18 0 9 6 24 14
32 26 29 74 164 95 268 15 72 21 139 21 236 0 82 8 184 20 263 19 129 50 440
50 508 0 22 -5 36 -13 36 -13 0 -43 -40 -39 -52 1 -5 -2 -8 -7 -8 -11 0 -84
-108 -84 -124 0 -6 -8 -19 -17 -29 -17 -17 -18 -16 -35 25 -34 86 -120 248
-131 248 -18 0 -23 -76 -24 -319 0 -124 -2 -226 -4 -228 -2 -2 -11 18 -21 44
-42 114 -148 343 -158 343 -6 0 -8 3 -4 6 7 8 -51 126 -67 136 -6 4 -7 8 -3 8
12 0 -64 140 -76 140 -6 0 -7 3 -4 6 8 8 -33 84 -45 84 -4 0 -7 3 -7 8 7 46
-26 42 -42 -5z"/>
<path d="M13670 11997 c0 -13 108 -148 249 -312 184 -214 434 -445 480 -445
20 0 11 33 -30 109 -147 269 -355 482 -610 627 -65 36 -89 42 -89 21z"/>
<path d="M13580 11630 c0 -20 771 -1089 830 -1152 94 -98 113 -5 43 217 -87
276 -356 636 -621 829 -108 78 -252 139 -252 106z"/>
<path d="M13600 11228 c0 -15 101 -207 281 -529 383 -690 585 -979 684 -979
53 0 56 74 10 245 -54 198 -123 337 -311 621 -201 305 -403 522 -585 627 -49
29 -79 34 -79 15z"/>
<path d="M13310 10626 c0 -23 462 -654 735 -1006 343 -441 510 -610 601 -610
40 0 50 24 40 100 -14 105 -112 349 -201 497 -60 102 -245 315 -444 513 -238
237 -445 399 -615 482 -84 40 -116 47 -116 24z"/>
<path d="M13320 9918 c0 -15 306 -406 624 -798 399 -491 658 -781 755 -846 25
-16 50 -24 68 -22 26 3 28 6 31 55 4 71 -30 169 -133 378 -108 221 -186 349
-283 466 -242 288 -659 616 -949 743 -86 38 -113 44 -113 24z"/>
</g>
</svg>
